# xmcd
#
# Track frame offsets:
#	150
#	12953
#	26162
#	39937
#	52605
#	64950
#	78131
#	89259
#	100873
#	113433
#	124859
#	135719
#	147523
#	159112
#	170646
#	183692
#	196818
#	209999
#	223396
#	236280
#	247490
#	260724
#
# Disc length: 3714 seconds
#
# Revision: 0
# Processed by: cddbd v1.4PL0 Copyright (c) Steve Scherf et al.
# Submitted via: EasyCDDAExtractor 4.6.9.1
#
DISCID=410e8016
DTITLE=Little Jimmy Dickens - I'm Little But I'm Loud
DYEAR=1996
DGENRE=Country
TTITLE0=Take An Old "Tater (And Wait)
TTITLE1=Country Boy
TTITLE2=Pennies For Papa
TTITLE3=My Heart's Bouquet
TTITLE4=A-Sleeping At The Foot Of The Bed
TTITLE5=Hillbilly Fever
TTITLE6=I'm Little But I'm Loud
TTITLE7=It May Be Silly (But Ain't It Fun)
TTITLE8=You All Come
TTITLE9=Rockin' With Red
TTITLE10=Out Behind The Barn
TTITLE11=Take Me As I Am (Or Let Me Go)
TTITLE12=We Could
TTITLE13=(I Got) A Hole In My Pocket
TTITLE14=John Henry
TTITLE15=Farewell Party
TTITLE16=The Violet And A Rose
TTITLE17=Another Bridge To Burn
TTITLE18=Life Turned Her That Way
TTITLE19=May The Bird Of Paradise Fly Up Your Nose
TTITLE20=Country Music Lover
TTITLE21=Raggedy Ann, (You've Been Quite A Doll)
EXTD=
EXTT0=
EXTT1=
EXTT2=
EXTT3=
EXTT4=
EXTT5=
EXTT6=
EXTT7=
EXTT8=
EXTT9=
EXTT10=
EXTT11=
EXTT12=
EXTT13=
EXTT14=
EXTT15=
EXTT16=
EXTT17=
EXTT18=
EXTT19=
EXTT20=
EXTT21=
PLAYORDER=
